<svg xmlns="http://www.w3.org/2000/svg" viewBox="0 0 329.02 335.52"><defs><style>.cls-1{fill:#013064;}.cls-2{fill:#00a7ee;}.cls-3{fill:#0066c8;}</style></defs><g id="Layer_3" data-name="Layer 3"><path class="cls-1" d="M606.48,498.07a137.05,137.05,0,0,1-81.13,63.41A161.19,161.19,0,0,0,583.88,262.2l-27.73,48A137.5,137.5,0,0,1,606.48,498.07Z" transform="translate(-335.49 -225.96)"/><path class="cls-2" d="M361.74,425.15a137,137,0,0,1-14.35-102A161.2,161.2,0,0,0,577.31,523.51l-27.73-48A137.51,137.51,0,0,1,361.74,425.15Z" transform="translate(-335.49 -225.96)"/><path class="cls-3" d="M547.26,249.65a137.07,137.07,0,0,1,95.49,38.56,161.2,161.2,0,0,0-288.46,99h55.47A137.51,137.51,0,0,1,547.26,249.65Z" transform="translate(-335.49 -225.96)"/></g></svg>